<svg xmlns="http://www.w3.org/2000/svg" width="720" height="778" viewBox="0 0 720 778" font-family="sans-serif">
<rect width="720" height="778" fill="#ffffff"/>
<text x="360.0" y="28" text-anchor="middle" font-size="18" font-weight="bold">Escalation funnel — cells resolved by tier ≤ N</text>
<line x1="70" y1="52" x2="70" y2="248" stroke="#333" stroke-width="1.5"/>
<line x1="70" y1="248" x2="690" y2="248" stroke="#333" stroke-width="1.5"/>
<line x1="70" y1="73.8" x2="690" y2="73.8" stroke="#bbbbbb" stroke-width="1" stroke-dasharray="4 3"/>
<text x="74" y="67.8" font-size="11" fill="#888">100% of populated (981 cells)</text>
<rect x="121.7" y="247.6" width="103.3" height="0.4" fill="#2ca02c"/>
<text x="173.3" y="239.6" text-anchor="middle" font-size="13" font-weight="bold" fill="#2ca02c">2 (0.2%)</text>
<text x="173.3" y="270.0" text-anchor="middle" font-size="13" fill="#333">Tier 1</text>
<rect x="328.3" y="106.5" width="103.3" height="141.5" fill="#2ca02c"/>
<text x="380.0" y="124.5" text-anchor="middle" font-size="13" font-weight="bold" fill="#ffffff">797 (81.2%)</text>
<text x="380.0" y="270.0" text-anchor="middle" font-size="13" fill="#333">Tier 1+2</text>
<rect x="535.0" y="73.8" width="103.3" height="174.2" fill="#2ca02c"/>
<rect x="535.0" y="52.0" width="103.3" height="21.8" fill="#d9d9d9"/>
<text x="586.7" y="66.9" text-anchor="middle" font-size="11" fill="#777">123 blank</text>
<text x="586.7" y="91.8" text-anchor="middle" font-size="13" font-weight="bold" fill="#ffffff">981 (100.0%)</text>
<text x="586.7" y="270.0" text-anchor="middle" font-size="13" fill="#333">Tier 1+2+3</text>
<text x="18" y="150.0" text-anchor="middle" font-size="13" fill="#333" transform="rotate(-90 18 150.0)">cells resolved</text>
<text x="70" y="296.0" font-size="11.5" fill="#555">Cells resolved by tier ≤ N (cumulative). Tier 3 only ever finalizes the</text>
<text x="70" y="312.0" font-size="11.5" fill="#555">residual the earlier tiers couldn't clear (the forced-escalated dates), so</text>
<text x="70" y="328.0" font-size="11.5" fill="#555">coverage still climbs to 100% of populated cells even though its slice F1 is</text>
<text x="70" y="344.0" font-size="11.5" fill="#555">worst. Tier 1's share is a tiny 2 cells — consistent with its 0.34 F1, not</text>
<text x="70" y="360.0" font-size="11.5" fill="#555">dressed up. The 123 genuinely-blank cells are an explicit remainder.</text>
<text x="360.0" y="404" text-anchor="middle" font-size="18" font-weight="bold">F1 by cumulative cascade stage (same run)</text>
<line x1="70" y1="628.0" x2="690" y2="628.0" stroke="#e5e5e5" stroke-width="1"/>
<text x="60" y="632.0" text-anchor="end" font-size="12" fill="#555">0.0</text>
<line x1="70" y1="588.0" x2="690" y2="588.0" stroke="#e5e5e5" stroke-width="1"/>
<text x="60" y="592.0" text-anchor="end" font-size="12" fill="#555">0.2</text>
<line x1="70" y1="548.0" x2="690" y2="548.0" stroke="#e5e5e5" stroke-width="1"/>
<text x="60" y="552.0" text-anchor="end" font-size="12" fill="#555">0.4</text>
<line x1="70" y1="508.0" x2="690" y2="508.0" stroke="#e5e5e5" stroke-width="1"/>
<text x="60" y="512.0" text-anchor="end" font-size="12" fill="#555">0.6</text>
<line x1="70" y1="468.0" x2="690" y2="468.0" stroke="#e5e5e5" stroke-width="1"/>
<text x="60" y="472.0" text-anchor="end" font-size="12" fill="#555">0.8</text>
<line x1="70" y1="428.0" x2="690" y2="428.0" stroke="#e5e5e5" stroke-width="1"/>
<text x="60" y="432.0" text-anchor="end" font-size="12" fill="#555">1.0</text>
<line x1="70" y1="428" x2="70" y2="628" stroke="#333" stroke-width="1.5"/>
<line x1="70" y1="628" x2="690" y2="628" stroke="#333" stroke-width="1.5"/>
<rect x="121.7" y="560.0" width="103.3" height="68.0" fill="#1f77b4"/>
<text x="173.3" y="552.0" text-anchor="middle" font-size="13" font-weight="bold" fill="#1f77b4">0.340</text>
<text x="173.3" y="650.0" text-anchor="middle" font-size="13" fill="#333">Tier 1</text>
<rect x="328.3" y="469.1" width="103.3" height="158.9" fill="#1f77b4"/>
<text x="380.0" y="461.1" text-anchor="middle" font-size="13" font-weight="bold" fill="#1f77b4">0.794</text>
<text x="380.0" y="650.0" text-anchor="middle" font-size="13" fill="#333">Tier 1+2</text>
<rect x="535.0" y="474.4" width="103.3" height="153.6" fill="#d62728"/>
<text x="586.7" y="466.4" text-anchor="middle" font-size="13" font-weight="bold" fill="#d62728">0.768</text>
<text x="586.7" y="650.0" text-anchor="middle" font-size="13" fill="#333">Tier 1+2+3</text>
<text x="18" y="528.0" text-anchor="middle" font-size="13" fill="#333" transform="rotate(-90 18 528.0)">F1 (micro)</text>
<text x="70" y="674.0" font-size="11.5" fill="#555">Tier 3 only re-extracts fields that escalated (confidence &lt; 0.80).</text>
<text x="70" y="690.0" font-size="11.5" fill="#555">The locked 0.5-confidence heuristic on coerced scalars forces every</text>
<text x="70" y="706.0" font-size="11.5" fill="#555">date field to escalate even when Tier 2 had it right — and the</text>
<text x="70" y="722.0" font-size="11.5" fill="#555">Q4_K_M 32B re-extracts those dates worse than the 7B, overwriting</text>
<text x="70" y="738.0" font-size="11.5" fill="#555">correct values (29/31 changed fields: correct → wrong, ~all dates).</text>
<text x="70" y="754.0" font-size="11.5" fill="#555">Shipped honest: motivates the local Qwen3-VL Tier-3b upgrade.</text>
<text x="690" y="770" text-anchor="end" font-size="11" fill="#999">alias_table_seed v1.0.0</text>
</svg>
